<svg width="72" height="72" viewBox="0 0 72 72" fill="none" xmlns="http://www.w3.org/2000/svg">
<rect width="72" height="72" rx="13.7143" fill="#1CA64C"/>
<path d="M45.8404 40.2818L45.7978 40.4097C41.9211 38.4476 41.4525 38.1917 40.9413 38.9595C40.6005 39.4713 39.5781 40.6656 39.2799 41.0495C38.9817 41.3908 38.6835 41.4334 38.1296 41.1775C36.5534 40.5377 35.105 39.642 33.8696 38.4903C32.7193 37.3813 31.7395 36.1443 30.9301 34.7794C30.4189 33.8837 31.4839 33.7557 32.4637 31.879C32.5915 31.5804 32.5915 31.1965 32.4211 30.8979C32.2933 30.5993 31.2283 27.9975 30.7597 26.9311C30.3337 25.9074 29.9077 26.0354 29.5669 26.0354C28.5444 25.9501 27.8202 25.9501 27.1386 26.6752C24.2843 29.8316 24.966 33.1159 27.4368 36.6135C32.2933 43.0116 34.8068 44.1633 39.5355 45.7841C40.6005 46.0827 41.7507 46.168 42.8583 45.9974C43.8808 45.8268 46.0108 44.6751 46.4368 43.4381C46.7776 42.6277 46.9054 41.732 46.7776 40.8789C46.735 40.623 46.3516 40.495 45.8404 40.2818Z" fill="#EFEFF9"/>
<path d="M51.2934 20.7036C37.5333 7.48094 14.827 17.078 14.7844 35.8031C14.7844 39.5566 15.7642 43.2248 17.6387 46.4239L14.5714 57.4286L25.9033 54.4854C40.0042 62.1205 57.428 51.9689 57.428 35.8031C57.4706 30.1728 55.2127 24.7557 51.1656 20.7889L51.2934 20.7036ZM53.8921 35.7604C53.8921 49.4096 38.8966 57.8977 27.1387 50.9452L26.4997 50.5613L19.8113 52.3101L21.558 45.7841L21.132 45.1016C13.8046 33.4145 22.2822 18.1017 36.2127 18.1017C45.9683 18.0591 53.8921 25.9927 53.8921 35.7604Z" fill="#EFEFF9"/>
</svg>
