<svg width="75" height="29" viewBox="0 0 75 29" fill="none" xmlns="http://www.w3.org/2000/svg">
<g clip-path="url(#clip0_297_3520)">
<path d="M44.1417 0.0293391C45.488 -0.0236682 47.1909 0.0228946 48.5593 0.0238063L56.8966 0.0243183L68.6217 0.0218567C70.3468 0.0239254 72.1834 -0.0110178 73.896 0.0265059L73.8925 6.28564C70.1072 6.22281 66.1764 6.27344 62.3793 6.27407L57.9915 6.27779C56.6501 6.27982 54.1868 6.05304 53.2048 7.14152C52.4929 7.93084 52.5275 9.86397 53.5954 10.3983C54.819 11.0109 56.3668 10.963 57.7256 11.0213L64.5684 11.3099C68.3655 11.4734 72.8835 11.2554 74.3164 15.7058C74.7693 17.113 74.8558 17.9455 74.9618 19.3997C74.9971 19.8639 74.9763 20.6105 74.9763 21.0836L74.9749 24.1668C74.9736 25.116 74.9784 26.0653 74.9874 27.0146C74.9936 27.6476 75.0165 28.3608 74.9791 28.9849C73.2713 29.0405 71.6709 28.9218 70.0061 28.9302L54.8273 28.9591C54.7782 27.0198 54.7533 23.9003 54.7782 21.9488C57.4229 21.8611 60.1785 22.78 62.8281 22.7075C64.4333 22.6636 66.362 22.3375 66.2651 20.267C66.1446 17.6805 63.1598 17.9249 61.3523 17.8139L54.1251 17.3956C51.4056 17.233 48.1341 17.2762 46.0171 15.2938C43.7664 13.1872 44.1826 10.1086 44.1563 7.33029C44.1341 4.91632 44.2193 2.44186 44.1417 0.0293391Z" fill="#101017"/>
<path d="M15.6557 0.0352974C16.7148 -0.0306058 18.424 0.0229977 19.52 0.0230398L27.0794 0.0233972C27.2628 0.276064 27.7111 1.13911 27.8788 1.4453L29.4985 4.41485L31.2987 7.72741C31.4512 8.00973 32.0404 9.06426 32.0987 9.30283C32.1455 9.49378 32.1289 10.7639 32.1288 11.0308L32.1283 15.0108L32.128 23.5768C32.1282 24.8756 32.1827 26.5286 32.1289 27.7958C31.8191 27.3571 31.2323 26.1907 30.9514 25.6598L28.8768 21.746L21.3051 7.44628C20.6519 8.78383 19.8908 10.1736 19.1914 11.4953L9.90946 28.9594C9.24692 28.973 8.46977 28.9291 7.78812 28.9255L2.78117 28.9253C1.89523 28.9271 0.868009 28.9001 0 28.9669C0.384766 28.1176 1.15534 26.8053 1.61739 25.9537L4.67904 20.295L12.8423 5.23791C13.7904 3.50945 14.7282 1.7752 15.6557 0.0352974Z" fill="#101017"/>
<path d="M42.1195 0.00979684C42.2885 -0.00226462 42.4824 0.0140954 42.6528 0.023408C42.5884 1.04631 42.6188 2.28443 42.6188 3.32898L42.6202 8.83411L42.6216 17.0695C42.6209 18.6791 42.5987 20.3393 42.6299 21.942C43.8861 21.8972 45.3183 21.9296 46.5849 21.9317L53.3052 21.9341C53.2885 24.2132 53.3564 26.7008 53.2941 28.956C52.3973 28.9883 51.3239 28.959 50.4097 28.959L44.767 28.9583L33.6839 28.9614L33.6763 0.0297332C36.4346 -0.0437295 39.3404 0.0467666 42.1195 0.00979684Z" fill="#BE0119"/>
<path d="M21.305 16.6538C21.4565 16.8301 21.9197 17.7381 22.0561 17.998L23.301 20.3528L26.1781 25.7733C26.6884 26.7342 27.3855 27.9832 27.8378 28.9535C27.1618 28.9824 26.2874 28.9581 25.5969 28.958L21.3156 28.9585L14.7661 28.9572L19.0017 20.9846C19.6963 19.6676 20.5605 17.9083 21.305 16.6538Z" fill="#BE0119"/>
</g>
<defs>
<clipPath id="clip0_297_3520">
<rect width="75" height="29" fill="white"/>
</clipPath>
</defs>
</svg>
