<svg width="563" height="169" viewBox="0 0 563 169" fill="none" xmlns="http://www.w3.org/2000/svg">
<path d="M407.425 17.9609C414.202 17.6975 422.774 17.9289 429.662 17.9334L471.628 17.936L530.649 17.9237C539.332 17.934 548.574 17.7604 557.196 17.9469L557.178 49.0489C538.124 48.7367 518.341 48.9884 499.226 48.9916L477.139 49.01C470.387 49.02 457.986 47.8931 453.045 53.3019C449.462 57.224 449.636 66.8299 455.01 69.4853C461.172 72.5292 468.963 72.2913 475.799 72.5808L510.244 74.0153C529.357 74.8274 552.099 73.744 559.311 95.8588C561.591 102.851 562.028 106.988 562.56 114.214C562.738 116.52 562.634 120.231 562.634 122.582L562.626 137.902C562.622 142.619 562.643 147.336 562.691 152.053C562.721 155.198 562.835 158.742 562.649 161.843C554.052 162.12 545.996 161.53 537.616 161.571L461.212 161.715C460.964 152.078 460.839 136.578 460.965 126.881C474.277 126.445 488.147 131.011 501.484 130.65C509.565 130.432 519.273 128.812 518.786 118.523C518.178 105.671 503.154 106.885 494.057 106.334L457.678 104.255C443.988 103.447 427.521 103.662 416.864 93.8111C405.537 83.3436 407.633 68.0453 407.5 54.2398C407.385 42.2448 407.815 29.9489 407.425 17.9609Z" fill="#060505"/>
<path d="M264.038 17.9902C269.369 17.6628 277.972 17.9291 283.489 17.9293L321.54 17.9311C322.463 19.1866 324.72 23.4751 325.564 24.9966L333.717 39.7525L342.779 56.2129C343.546 57.6158 346.512 62.8559 346.806 64.0413C347.041 64.9901 346.957 71.3018 346.957 72.6277L346.954 92.405L346.953 134.97C346.954 141.423 347.228 149.638 346.957 155.934C345.398 153.754 342.444 147.958 341.03 145.32L330.588 125.873L292.475 54.8159C289.187 61.4625 285.356 68.3685 281.835 74.936L235.114 161.716C231.779 161.784 227.867 161.566 224.436 161.548L199.233 161.547C194.773 161.556 189.602 161.422 185.233 161.753C187.17 157.534 191.049 151.012 193.375 146.781L208.786 118.662L249.876 43.8425C254.649 35.2535 259.369 26.6359 264.038 17.9902Z" fill="#060505"/>
<path d="M397.246 17.8629C398.097 17.803 399.072 17.8842 399.931 17.9305C399.606 23.0134 399.761 29.1657 399.759 34.3562L399.767 61.7117L399.775 102.634C399.769 110.632 399.658 118.882 399.816 126.846C406.138 126.623 413.347 126.784 419.725 126.795L453.55 126.807C453.465 138.132 453.809 150.493 453.494 161.699C448.979 161.859 443.577 161.714 438.976 161.714L410.573 161.71L354.783 161.726L354.747 17.962C368.631 17.5969 383.258 18.0466 397.246 17.8629Z" fill="#BE0119"/>
<path d="M292.474 100.569C293.237 101.445 295.569 105.957 296.255 107.248L302.521 118.949L317.004 145.884C319.572 150.659 323.081 156.865 325.358 161.687C321.955 161.83 317.553 161.71 314.078 161.709L292.528 161.712L259.56 161.705L280.881 122.089C284.377 115.544 288.727 106.802 292.474 100.569Z" fill="#BE0119"/>
<path d="M61.7281 0.12637C63.8949 -0.0613052 67.0095 0.0389601 69.2329 0.0460166L81.9995 0.0755128L96.4392 0.0548703C98.9449 0.0508328 102.085 -0.10084 104.536 0.118284C108.144 0.440897 112.788 2.74406 116.205 4.08465L131.803 10.0843C134.991 11.3018 138.806 12.8677 142.152 13.545C145.05 14.1312 163.521 12.8557 165.002 14.1384C165.659 15.3661 165.793 19.6323 165.458 20.8733C164.801 23.3033 160.588 22.7302 159.068 25.0692C157.552 27.4 157.588 30.646 159.274 32.8846C160.75 34.6107 162.842 34.6337 164.61 35.8547C166.066 36.8602 165.863 42.8539 164.974 43.7071C163.905 44.7322 158.504 44.3182 156.775 44.3117L143.201 44.268L103.856 44.2541L38.6521 44.2557C26.7707 44.2996 14.8875 44.3937 3.00721 44.2698C1.69536 44.2561 0.302632 44.1799 0.139694 42.4783C0.00130628 41.0328 0.0115294 37.8361 0.375936 36.5099C0.984829 35.4704 3.16898 34.9718 4.17227 34.4874C7.65954 32.8754 8.74042 28.5562 6.66384 25.2281C4.65101 22.0021 -0.26639 24.041 0.0123527 18.9091C0.0854995 17.5613 -0.092591 15.3785 0.64892 14.226C2.46719 12.8192 19.2798 14.0441 22.9394 13.6152C25.6351 13.2994 28.2733 12.1823 30.8637 11.2579C37.3753 8.93436 43.75 6.31129 50.2485 3.94909C54.6058 2.36517 57.0744 0.727974 61.7281 0.12637Z" fill="#BE0018"/>
<path d="M4.82964 136.219L4.93788 136.21C7.6675 136.003 10.9877 136.075 13.7676 136.061C19.7179 136.012 25.6686 136.069 31.6173 136.231C37.5105 136.363 43.9873 136.247 49.9765 136.271L135.53 136.273L155.478 136.249C158.233 136.255 161.165 136.231 163.931 136.283C164.383 136.292 164.651 136.447 164.963 136.773C165.452 137.284 165.516 137.678 165.569 138.302C166.244 146.211 162.78 143.169 159.844 146.743C158.373 148.565 157.625 150.925 157.758 153.323C157.933 156.255 159.523 159.114 162.062 160.428C162.989 160.909 164.211 161.187 164.981 161.906C165.368 162.27 165.587 162.803 165.577 163.353C165.554 164.75 165.918 167.242 164.946 168.325C164.152 169.212 161.729 168.975 160.534 168.962C121.639 168.486 82.2667 168.79 43.3264 168.804L15.0944 168.859C11.8544 168.86 3.45846 169.075 0.84548 168.455C0.309902 167.935 0.154545 166.875 0.0993589 166.162C-0.418427 159.491 3.14546 162.235 6.1011 158.513C7.43585 156.784 8.26384 153.762 8.0327 151.675C7.49169 146.792 4.31644 145.338 0.754537 143.455C-0.0337592 143.038 -0.0779087 137.695 0.63823 136.83C1.7084 136.021 3.38105 136.276 4.82964 136.219Z" fill="#BE0018"/>
<path d="M122.603 134.329C117.581 134.444 111.608 134.343 106.552 134.331C98.9378 134.356 91.3235 134.357 83.7093 134.334L50.9273 134.324C48.2207 134.32 45.3155 134.424 42.7237 134.399C42.5796 133.08 42.0412 130.352 45.367 130.208C48.1957 130.086 51.27 130.168 54.1325 130.186C54.0016 128.045 54.0016 125.359 54.0016 122.002C53.7324 119.605 54.0016 115.382 54.0016 112.212C54.0131 106.693 54.3028 104.922 54.0016 111.373C54.0016 104.846 54.4959 111.139 54.0016 110.44C53.931 110.341 54.1325 98.9415 54.0016 109.304C54.5988 109.257 53.7344 108.752 54.0727 108.558C54.2805 107.066 54.4238 109.66 54.2591 109.304C53.9752 107.641 54.0727 104.083 54.0016 104.922C53.9899 102.666 54.0016 93.2666 54.0016 99.9799C53.9207 99.3374 54.1105 98.6768 54.0016 98.0377C50.8464 97.9835 46.2482 98.2967 43.5533 97.528C42.5266 97.236 42.5722 94.1283 42.6914 93.5095C42.9782 92.0255 41.8558 89.3234 43.8446 88.272C44.002 88.1873 44.1638 88.1069 44.3315 88.0307C46.1864 87.8072 48.7988 87.8699 50.767 87.869L60.218 87.8631C61.2079 87.8589 63.4587 87.9308 65.0451 87.8309C66.0146 87.9308 65.2737 87.8453 65.7444 87.9308C68.3804 87.7801 72.6903 87.9799 74.6202 87.8309C79.3965 87.9283 84.7568 87.7556 89.6344 87.8462C91.3562 87.8783 98.8438 87.9435 100.241 87.8394C102.641 87.7082 106.483 87.8572 109.165 87.8724C111.507 87.886 120.107 87.737 121.747 88.465C123.389 89.1939 122.668 92.9017 122.849 94.1377C123.013 95.2602 122.881 97.7947 119.938 97.9098C117.023 98.0275 113.889 97.9488 110.942 97.9302C110.701 99.7892 110.827 102.247 110.855 104.117L110.873 111.094C110.892 117.275 110.634 123.982 110.955 130.127C113.624 130.29 116.442 130.173 119.137 130.221C123.449 130.298 122.84 132.534 122.603 134.329ZM100.229 97.8963C98.9313 97.8827 95.9394 97.7888 94.845 98.0402C94.6764 98.2197 94.7079 98.2231 94.7151 98.4321C94.5087 107.582 94.8426 116.757 94.6409 125.909C94.6248 126.643 94.6409 129.473 94.9013 129.984C96.0689 130.127 99.0226 130.007 100.299 129.984C100.181 122.993 100.195 116.198 100.24 109.207C100.239 105.52 100.094 101.555 100.229 97.8963Z" fill="#BE0119"/>
<path d="M119.864 46.3199C120.126 46.2561 120.113 46.2918 120.399 46.3558C120.851 47.4075 120.653 54.8436 120.659 56.4909C108.592 56.0151 96.0766 56.3441 83.9647 56.365C70.0363 56.276 56.1072 56.2976 42.1789 56.4294L42.149 59.4956C55.8619 59.7037 70.0026 59.4816 83.7736 59.5077L112.436 59.4946C116.119 59.4745 119.851 59.5548 123.524 59.4505C123.589 55.7449 123.282 49.5886 123.547 46.2955C124.867 46.3162 126.304 46.2607 127.633 46.2363C127.653 46.6303 127.669 47.0244 127.679 47.4189C127.785 51.7598 127.771 56.3987 127.626 60.7388C127.519 63.9568 124.874 63.492 122.678 63.5109C121.02 63.5253 119.241 63.4876 117.529 63.4728L111.149 63.4661C111.151 66.3153 111.424 83.5792 110.755 84.9827C109.365 85.6138 101.465 85.3828 99.6202 85.383L82.3601 85.384L64.9512 85.3793C61.9144 85.378 58.8634 85.4021 55.8265 85.345C55.3642 85.3364 55.1377 85.3115 54.7893 84.9836C54.4023 84.6193 54.4896 84.3566 54.4021 83.8519C54.2955 81.5792 54.3364 79.1767 54.3375 76.9007L54.35 63.4693C50.1692 63.441 45.988 63.4653 41.8077 63.5416C38.1621 63.5857 37.8338 62.3327 37.9366 58.7263C38.0527 54.6527 37.9745 50.5404 38.0537 46.457C40.0813 46.2879 43.0897 46.3885 45.1961 46.3983L56.7591 46.4173L98.2676 46.3618C104.747 46.3639 113.615 46.7226 119.864 46.3199Z" fill="#060505"/>
<path d="M9.64643 46.2698C11.6881 46.2284 13.6731 46.3494 15.7043 46.3411L27.7854 46.2291C27.8014 55.706 27.8058 66.4974 27.8014 76.0792L27.7729 134.181L23.0766 134.164L23.0685 53.474C23.082 51.9466 23.3662 48.5978 22.1565 47.6334L21.8557 47.6998C20.6926 49.27 21.113 55.4327 21.116 57.6756L21.125 73.3059L21.1285 112.2C21.1278 119.417 21.2382 126.964 21.0675 134.149C17.2554 134.099 13.4507 134.201 9.63819 134.144C9.4069 130.775 9.57593 125.232 9.57345 121.664L9.56604 97.5264L9.55203 65.3536C9.54841 59.2237 9.41314 52.3466 9.64643 46.2698Z" fill="#060505"/>
<path d="M137.88 46.2256L156.013 46.2527C156.298 49.351 156.137 55.5439 156.135 58.8038L156.129 82.3266L156.112 116.396C156.109 121.981 156.298 128.678 156.058 134.125C153.255 134.333 147.692 134.137 144.611 134.155C144.366 125.977 144.56 116.559 144.559 108.298L144.57 59.8382C144.55 56.5833 144.796 51.9124 144.419 48.5987C144.361 48.094 143.738 47.6654 143.155 47.8973C142.183 49.1984 142.649 55.157 142.639 57.0069L142.539 73.6579L142.498 114.158C142.503 120.795 142.651 127.555 142.547 134.165L137.888 134.183L137.87 76.0645C137.868 66.2438 137.719 56.0079 137.88 46.2256Z" fill="#060505"/>
</svg>
