<svg width="110" height="57" viewBox="0 0 110 57" fill="none" xmlns="http://www.w3.org/2000/svg">
<path d="M63.5092 0.0423629C65.4214 -0.0320385 67.84 0.0333151 69.7835 0.0345967L81.6242 0.0353213L98.2771 0.0318583C100.727 0.0347648 103.335 -0.0142793 105.767 0.0383921L105.762 8.82385C100.386 8.73565 94.8043 8.80676 89.411 8.80765L83.1791 8.81285C81.2741 8.81569 77.7752 8.49736 76.3811 10.0252C75.37 11.1331 75.4191 13.8465 76.9355 14.5965C78.6741 15.4564 80.8722 15.3892 82.8011 15.471L92.5197 15.8761C97.9125 16.1056 104.329 15.7995 106.364 22.0463C107.007 24.0214 107.131 25.1899 107.281 27.2311C107.331 27.8827 107.302 28.9307 107.302 29.5948L107.299 33.9223C107.298 35.2547 107.304 36.5871 107.318 37.9195C107.326 38.808 107.359 39.8092 107.306 40.6851C104.88 40.7632 102.607 40.5965 100.243 40.6083L78.6852 40.6489C78.6155 37.9268 78.6469 33.5005 78.6827 30.7613C82.4385 30.6382 86.285 31.9758 90.0481 31.874C92.3282 31.8123 95.0673 31.3547 94.93 28.4484C94.7586 24.8179 90.5193 25.161 87.9527 25.0052L77.6881 24.4181C73.8257 24.1898 69.1794 24.2504 66.1723 21.4679C62.9765 18.5111 63.5678 14.1898 63.5304 10.2901C63.498 6.90189 63.6191 3.42864 63.5092 0.0423629Z" fill="#060505"/>
<path d="M23.0525 0.0500212C24.5566 -0.0424791 26.984 0.0327611 28.5406 0.0328183L39.2768 0.0333225C39.5372 0.387963 40.1739 1.59936 40.4121 2.02913L42.7125 6.19725L45.2693 10.8469C45.4859 11.2431 46.3226 12.7233 46.4055 13.0582C46.4718 13.3262 46.4482 15.1091 46.4482 15.4836L46.4474 21.0701L46.4469 33.0935C46.4474 34.9164 46.5248 37.2368 46.4483 39.0153C46.0083 38.3996 45.1749 36.7624 44.7759 36.0172L41.8296 30.5238L31.0759 10.4522C30.1482 12.3297 29.0672 14.2805 28.0739 16.1356L14.8914 40.6485C13.9504 40.6678 12.8466 40.6061 11.8785 40.601L4.76744 40.6009C3.50917 40.6033 2.05024 40.5654 0.817505 40.6591C1.36399 39.4671 2.45837 37.6251 3.11461 36.4297L7.46282 28.4871L19.0567 7.35256C20.4032 4.92642 21.7352 2.49219 23.0525 0.0500212Z" fill="#060505"/>
<path d="M60.6373 0.0137496C60.8774 -0.00317441 61.1526 0.0197842 61.3949 0.032852C61.3034 1.46862 61.3469 3.20648 61.3464 4.67264L61.3486 12.3998L61.3508 23.9592C61.3492 26.2185 61.3179 28.5487 61.3626 30.7984C63.1464 30.7355 65.1803 30.7809 66.9798 30.7839L76.5236 30.7873C76.4996 33.9863 76.5967 37.478 76.5079 40.6434C75.2339 40.6887 73.7097 40.6476 72.4116 40.6475L64.3976 40.6466L48.6563 40.6511L48.6461 0.041735C52.5635 -0.0613804 56.6906 0.0656429 60.6373 0.0137496Z" fill="#BE0119"/>
<path d="M31.0757 23.376C31.291 23.6234 31.9488 24.8979 32.1425 25.2626L33.9106 28.5679L37.9967 36.1763C38.7215 37.5251 39.7115 39.2782 40.354 40.6402C39.3938 40.6807 38.1519 40.6465 37.1713 40.6464L31.0908 40.6471L21.7889 40.6453L27.8046 29.4548C28.791 27.6061 30.0184 25.1368 31.0757 23.376Z" fill="#BE0119"/>
<path d="M0.745599 55.7773V49.4892H1.85951L3.83579 52.3997L5.79411 49.4892H6.917V55.7773H5.87496V51.1331L3.82681 54.1604L1.78764 51.151V55.7773H0.745599ZM14.0185 55.7773L11.5661 49.4892H12.6082L15.1234 55.7773H14.0185ZM8.99694 55.7773L11.5032 49.4892H12.5543L10.1019 55.7773H8.99694ZM10.1737 54.2322V53.307H13.9377V54.2322H10.1737ZM11.3595 49.0849L12.3926 47.9351H13.5604L12.4015 49.0849H11.3595ZM19.9942 55.8851C19.3714 55.8851 18.8205 55.7474 18.3414 55.4719C17.8623 55.1964 17.485 54.8132 17.2095 54.3221C16.94 53.831 16.8052 53.2681 16.8052 52.6333C16.8052 52.1542 16.8831 51.717 17.0388 51.3217C17.1945 50.9265 17.4131 50.5851 17.6946 50.2976C17.976 50.0042 18.3084 49.7796 18.6917 49.6239C19.081 49.4622 19.5062 49.3814 19.9673 49.3814C20.5901 49.3814 21.1381 49.5221 21.6112 49.8036C22.0903 50.0791 22.4616 50.4623 22.7251 50.9534C22.9946 51.4385 23.1294 51.9984 23.1294 52.6333C23.1294 53.2681 22.9946 53.831 22.7251 54.3221C22.4616 54.8132 22.0933 55.1964 21.6202 55.4719C21.1531 55.7474 20.6111 55.8851 19.9942 55.8851ZM22.4377 56.1457L20.147 53.828L20.8207 53.1812L23.0934 55.4899L22.4377 56.1457ZM19.9942 54.9329C20.4015 54.9329 20.7608 54.8341 21.0722 54.6365C21.3836 54.4389 21.6262 54.1694 21.7999 53.828C21.9795 53.4807 22.0693 53.0824 22.0693 52.6333C22.0693 52.1841 21.9795 51.7888 21.7999 51.4475C21.6202 51.1001 21.3717 50.8276 21.0543 50.63C20.7428 50.4324 20.3805 50.3336 19.9673 50.3336C19.5601 50.3336 19.1977 50.4324 18.8803 50.63C18.5689 50.8276 18.3204 51.1001 18.1347 51.4475C17.9551 51.7888 17.8652 52.1841 17.8652 52.6333C17.8652 53.0824 17.9551 53.4807 18.1347 53.828C18.3204 54.1694 18.5719 54.4389 18.8893 54.6365C19.2127 54.8341 19.581 54.9329 19.9942 54.9329ZM27.9098 55.9031C27.4127 55.9031 26.9755 55.8043 26.5982 55.6067C26.2269 55.403 25.9365 55.1186 25.7269 54.7533C25.5233 54.388 25.4215 53.9628 25.4215 53.4777V49.4892H26.4635V53.4777C26.4635 53.7711 26.5234 54.0286 26.6432 54.2502C26.7689 54.4658 26.9426 54.6365 27.1642 54.7623C27.3858 54.882 27.6403 54.9419 27.9277 54.9419C28.2212 54.9419 28.4787 54.882 28.7003 54.7623C28.9279 54.6365 29.1015 54.4658 29.2213 54.2502C29.3411 54.0286 29.401 53.7711 29.401 53.4777V49.4892H30.443V53.4777C30.443 53.9628 30.3382 54.388 30.1286 54.7533C29.925 55.1186 29.6315 55.403 29.2483 55.6067C28.871 55.8043 28.4248 55.9031 27.9098 55.9031ZM33.1027 55.7773V49.4892H34.1448V55.7773H33.1027ZM36.8956 55.7773V49.4892H37.9736L41.3153 54.0346V49.4892H42.3574V55.7773H41.3153L37.9377 51.178V55.7773H36.8956ZM49.4667 55.7773L47.0143 49.4892H48.0564L50.5717 55.7773H49.4667ZM44.4452 55.7773L46.9515 49.4892H48.0025L45.5501 55.7773H44.4452ZM45.622 54.2322V53.307H49.3859V54.2322H45.622ZM54.7148 55.8851C54.3855 55.8851 54.083 55.8462 53.8075 55.7684C53.538 55.6905 53.2985 55.5827 53.0889 55.445C52.8853 55.3072 52.7146 55.1545 52.5769 54.9868C52.4451 54.8132 52.3523 54.6335 52.2984 54.4478L53.3225 54.1334C53.4003 54.355 53.553 54.5497 53.7806 54.7173C54.0082 54.885 54.2896 54.9719 54.625 54.9778C55.0143 54.9778 55.3227 54.897 55.5503 54.7353C55.7778 54.5736 55.8916 54.361 55.8916 54.0975C55.8916 53.858 55.7958 53.6633 55.6042 53.5136C55.4125 53.3579 55.155 53.2381 54.8316 53.1543L54.0591 52.9566C53.7656 52.8788 53.4991 52.765 53.2596 52.6153C53.026 52.4656 52.8404 52.2769 52.7026 52.0493C52.5709 51.8218 52.505 51.5523 52.505 51.2409C52.505 50.654 52.6966 50.1988 53.0799 49.8754C53.4632 49.5461 54.0112 49.3814 54.7238 49.3814C55.1251 49.3814 55.4754 49.4442 55.7748 49.57C56.0803 49.6898 56.3318 49.8575 56.5294 50.0731C56.7271 50.2827 56.8738 50.5222 56.9696 50.7917L55.9635 51.1151C55.8737 50.8756 55.718 50.6779 55.4964 50.5222C55.2748 50.3665 54.9993 50.2887 54.6699 50.2887C54.3286 50.2887 54.0591 50.3695 53.8614 50.5312C53.6698 50.6929 53.574 50.9175 53.574 51.2049C53.574 51.4385 53.6488 51.6212 53.7986 51.7529C53.9543 51.8787 54.1639 51.9745 54.4274 52.0404L55.1999 52.229C55.7629 52.3668 56.2 52.6033 56.5115 52.9387C56.8229 53.274 56.9786 53.6454 56.9786 54.0526C56.9786 54.4119 56.8917 54.7293 56.7181 55.0048C56.5444 55.2803 56.2869 55.4959 55.9455 55.6516C55.6102 55.8073 55.1999 55.8851 54.7148 55.8851ZM62.8137 55.7773V49.4892H63.8557V54.8251H66.7034V55.7773H62.8137ZM69.3917 55.7773V50.4414H67.4603V49.4892H72.3651V50.4414H70.4338V55.7773H69.3917ZM74.4875 55.7773V49.4892H76.4638C77.0807 49.4892 77.6256 49.6239 78.0987 49.8934C78.5778 50.1569 78.9521 50.5252 79.2216 50.9983C79.4971 51.4714 79.6349 52.0164 79.6349 52.6333C79.6349 53.2441 79.4971 53.7861 79.2216 54.2592C78.9521 54.7323 78.5778 55.1036 78.0987 55.3731C77.6256 55.6426 77.0807 55.7773 76.4638 55.7773H74.4875ZM75.5296 54.8072H76.4638C76.7573 54.8072 77.0327 54.7533 77.2903 54.6455C77.5478 54.5317 77.7724 54.376 77.964 54.1783C78.1556 53.9807 78.3054 53.7502 78.4131 53.4866C78.5209 53.2231 78.5748 52.9387 78.5748 52.6333C78.5748 52.3278 78.5209 52.0434 78.4131 51.7799C78.3054 51.5164 78.1556 51.2858 77.964 51.0882C77.7724 50.8905 77.5478 50.7378 77.2903 50.63C77.0327 50.5162 76.7573 50.4593 76.4638 50.4593H75.5296V54.8072ZM86.348 55.7773L83.8957 49.4892H84.9377L87.453 55.7773H86.348ZM81.3265 55.7773L83.8328 49.4892H84.8838L82.4314 55.7773H81.3265ZM82.5033 54.2322V53.307H86.2672V54.2322H82.5033ZM89.2875 53.5405V52.6692H91.9824V53.5405H89.2875ZM94.4809 55.7773V49.4892H95.5948L97.5711 52.3997L99.5294 49.4892H100.652V55.7773H99.6103V51.1331L97.5621 54.1604L95.523 51.151V55.7773H94.4809ZM103.397 55.7773V49.4892H107.269V50.4414H104.439V52.1122H106.936V53.0465H104.439V54.8251H107.296V55.7773H103.397Z" fill="#060505"/>
</svg>
