<svg width="120" height="35" viewBox="0 0 120 35" fill="none" xmlns="http://www.w3.org/2000/svg">
<path d="M86.8784 3.03156C88.3236 2.9749 90.1515 3.02467 91.6203 3.02565L100.569 3.0262L113.154 3.02356C115.006 3.02578 116.977 2.98842 118.815 3.02854L118.811 9.71932C114.748 9.65215 110.53 9.70631 106.454 9.70699L101.744 9.71094C100.304 9.71311 97.66 9.47068 96.6064 10.6342C95.8423 11.478 95.8794 13.5444 97.0254 14.1157C98.3393 14.7705 100.001 14.7193 101.458 14.7816L108.803 15.0902C112.879 15.2649 117.728 15.0318 119.266 19.7892C119.752 21.2934 119.846 22.1833 119.959 23.7378C119.997 24.234 119.975 25.0322 119.975 25.5379L119.973 28.8337C119.972 29.8484 119.977 30.8631 119.987 31.8778C119.993 32.5545 120.018 33.317 119.978 33.9841C118.145 34.0435 116.427 33.9166 114.64 33.9256L98.3478 33.9565C98.295 31.8834 98.2683 28.5489 98.2953 26.4628C101.134 26.369 104.091 27.3513 106.935 27.2737C108.658 27.2268 110.729 26.8783 110.625 24.6649C110.495 21.9 107.291 22.1613 105.352 22.0426L97.5942 21.5955C94.6751 21.4216 91.1637 21.4678 88.8911 19.3487C86.4759 17.0969 86.9227 13.8059 86.8944 10.836C86.87 8.25561 86.9615 5.61047 86.8784 3.03156Z" fill="#FFF9F9"/>
<path d="M56.3026 3.03779C57.4394 2.96734 59.2739 3.02464 60.4503 3.02469L68.5642 3.02507C68.761 3.29515 69.2422 4.21772 69.4222 4.54503L71.1608 7.71937L73.093 11.2604C73.2567 11.5622 73.889 12.6894 73.9517 12.9445C74.0019 13.1486 73.984 14.5064 73.984 14.7916L73.9834 19.0462L73.983 28.2029C73.9834 29.5912 74.0419 31.3583 73.9841 32.7128C73.6516 32.2438 73.0217 30.997 72.7202 30.4295L70.4935 26.2459L62.3664 10.9599C61.6653 12.3897 60.8483 13.8753 60.0976 15.2882L50.1349 33.9566C49.4237 33.9713 48.5896 33.9243 47.8579 33.9204L42.4837 33.9203C41.5328 33.9222 40.4302 33.8933 39.4985 33.9647C39.9115 33.0569 40.7386 31.654 41.2346 30.7437L44.5207 24.6948L48.9018 16.647L53.2828 8.59922C54.3004 6.75153 55.3071 4.89768 56.3026 3.03779Z" fill="#FFF9F9"/>
<path d="M84.7074 3.01047C84.8889 2.99758 85.0969 3.01507 85.28 3.02502C85.2108 4.11847 85.2437 5.44197 85.2433 6.55857L85.245 12.4434L85.2467 21.2467C85.2454 22.9674 85.2218 24.742 85.2555 26.4553C86.6037 26.4074 88.1408 26.442 89.5007 26.4443L96.7135 26.4469C96.6953 28.8831 96.7688 31.5423 96.7017 33.953C95.7388 33.9875 94.5869 33.9562 93.6059 33.9562L87.5492 33.9554L75.6527 33.9588L75.645 3.03178C78.6056 2.95325 81.7247 3.04999 84.7074 3.01047Z" fill="#BE0119"/>
<path d="M62.3661 20.8025C62.5288 20.9909 63.026 21.9616 63.1724 22.2393L64.5086 24.7565L67.5967 30.5509C68.1445 31.5781 68.8926 32.9132 69.3782 33.9505C68.6526 33.9813 67.714 33.9553 66.9729 33.9552L62.3775 33.9557L55.3477 33.9544L59.894 25.4319C60.6395 24.024 61.5671 22.1435 62.3661 20.8025Z" fill="#BE0119"/>
<path d="M12.668 0.0261714C13.1127 -0.0126963 13.7519 0.00806866 14.2082 0.00953007L16.8282 0.0156388L19.7916 0.0113637C20.3058 0.0105275 20.9502 -0.020884 21.4533 0.0244968C22.1937 0.09131 23.1468 0.568297 23.848 0.845934L27.0491 2.08847C27.7033 2.34062 28.4863 2.6649 29.173 2.80518C29.7677 2.92658 33.5584 2.66243 33.8624 2.92807C33.9972 3.18233 34.0246 4.06585 33.956 4.32288C33.8211 4.82612 32.9566 4.70745 32.6445 5.19186C32.3335 5.67456 32.3409 6.3468 32.6868 6.81042C32.9897 7.1679 33.4191 7.17266 33.7819 7.42554C34.0808 7.63377 34.0392 8.87506 33.8566 9.05177C33.6372 9.26407 32.5289 9.17833 32.1739 9.17699L29.3884 9.16794L21.3137 9.16506L7.93219 9.16539C5.49382 9.17448 3.05508 9.19397 0.616956 9.1683C0.34773 9.16546 0.0619073 9.14968 0.0284683 8.79729C6.76659e-05 8.49791 0.00216571 7.83588 0.0769513 7.56123C0.201912 7.34594 0.650156 7.24268 0.856055 7.14237C1.57173 6.80852 1.79356 5.91402 1.36739 5.22476C0.954304 4.55666 -0.0548704 4.9789 0.00233467 3.91609C0.0173462 3.63696 -0.0192024 3.18491 0.132974 2.94621C0.506129 2.65486 3.95651 2.90854 4.70755 2.81972C5.26077 2.75431 5.8022 2.52295 6.33382 2.33152C7.67016 1.85031 8.97842 1.30707 10.3121 0.817859C11.2063 0.489827 11.7129 0.150764 12.668 0.0261714Z" fill="#BE0018"/>
<path d="M0.990909 28.211L1.01312 28.2091C1.57331 28.1663 2.2547 28.1812 2.8252 28.1784C4.04636 28.1682 5.26759 28.18 6.48841 28.2135C7.69784 28.2409 9.02706 28.2168 10.2562 28.2218L27.8139 28.2223L31.9079 28.2173C32.4731 28.2184 33.075 28.2136 33.6426 28.2243C33.7353 28.2261 33.7904 28.2583 33.8543 28.3258C33.9547 28.4316 33.9679 28.5133 33.9787 28.6423C34.1173 30.2803 33.4063 29.6505 32.8038 30.3907C32.5019 30.7678 32.3484 31.2566 32.3758 31.7534C32.4116 32.3605 32.7379 32.9527 33.2589 33.2248C33.4492 33.3244 33.7001 33.3818 33.858 33.5309C33.9374 33.6062 33.9824 33.7167 33.9804 33.8305C33.9756 34.1199 34.0504 34.6359 33.8509 34.8602C33.6879 35.0438 33.1906 34.9947 32.9455 34.9922C24.9631 34.8937 16.883 34.9566 8.89141 34.9595L3.0975 34.9707C2.43257 34.9711 0.70951 35.0155 0.173259 34.8871C0.0633447 34.7795 0.0314614 34.5599 0.0201358 34.4123C-0.086127 33.0306 0.645272 33.5989 1.25184 32.8282C1.52577 32.4701 1.69569 31.8441 1.64826 31.412C1.53723 30.4007 0.885588 30.0996 0.154595 29.7096C-0.00718339 29.6233 -0.016244 28.5167 0.130726 28.3376C0.350351 28.1701 0.693622 28.2228 0.990909 28.211Z" fill="#BE0018"/>
<path d="M25.1609 27.8196C24.1301 27.8433 22.9044 27.8225 21.8668 27.82C20.3042 27.8251 18.7415 27.8254 17.1789 27.8207L10.4512 27.8185C9.89574 27.8178 9.29953 27.8393 8.76762 27.8342C8.73803 27.561 8.62755 26.9959 9.3101 26.9662C9.89061 26.941 10.5215 26.9579 11.109 26.9616C11.0821 26.5183 11.0821 25.9619 11.0821 25.2667C11.0269 24.7703 11.0821 23.8957 11.0821 23.2392C11.0845 22.0962 11.1439 21.7294 11.0821 23.0654C11.0821 21.7137 11.1836 23.0169 11.0821 22.8723C11.0676 22.8516 11.109 20.4908 11.0821 22.637C11.2047 22.6273 11.0273 22.5226 11.0967 22.4824C11.1394 22.1735 11.1688 22.7106 11.135 22.637C11.0767 22.2925 11.0967 21.5556 11.0821 21.7294C11.0797 21.2623 11.0821 19.3156 11.0821 20.7059C11.0655 20.5728 11.1045 20.436 11.0821 20.3037C10.4346 20.2924 9.49092 20.3573 8.93788 20.1981C8.72717 20.1376 8.73653 19.494 8.76098 19.3659C8.81985 19.0585 8.58951 18.4989 8.99765 18.2812C9.02995 18.2637 9.06316 18.247 9.09758 18.2312C9.47825 18.1849 10.0144 18.1979 10.4183 18.1977L12.3579 18.1965C12.561 18.1956 13.023 18.2105 13.3485 18.1898C13.5475 18.2105 13.3954 18.1928 13.492 18.2105C14.033 18.1793 14.9175 18.2207 15.3136 18.1898C16.2938 18.21 17.3939 18.1742 18.3949 18.193C18.7482 18.1997 20.2849 18.2132 20.5715 18.1916C21.0641 18.1644 21.8527 18.1953 22.4032 18.1984C22.8837 18.2012 24.6487 18.1704 24.9851 18.3212C25.3222 18.4721 25.1742 19.24 25.2113 19.496C25.245 19.7284 25.218 20.2533 24.6139 20.2772C24.0158 20.3016 23.3725 20.2853 22.7678 20.2814C22.7183 20.6664 22.7442 21.1753 22.75 21.5626L22.7536 23.0077C22.7575 24.2878 22.7045 25.6768 22.7705 26.9494C23.3181 26.9831 23.8965 26.9589 24.4495 26.9689C25.3345 26.9849 25.2095 27.4478 25.1609 27.8196ZM20.5692 20.2744C20.3028 20.2716 19.6888 20.2521 19.4642 20.3042C19.4296 20.3414 19.4361 20.3421 19.4376 20.3854C19.3952 22.2803 19.4637 24.1805 19.4224 26.0758C19.419 26.2279 19.4224 26.8139 19.4758 26.9197C19.7154 26.9494 20.3216 26.9246 20.5836 26.9197C20.5594 25.4719 20.5623 24.0647 20.5715 22.6169C20.5713 21.8533 20.5415 21.0321 20.5692 20.2744Z" fill="#BE0119"/>
<path d="M24.5989 9.59287C24.6526 9.57968 24.6499 9.58706 24.7088 9.60033C24.8014 9.81812 24.7608 11.3581 24.7622 11.6993C22.2856 11.6008 19.7171 11.6689 17.2315 11.6732C14.373 11.6548 11.5144 11.6593 8.65597 11.6866L8.64985 12.3216C11.4641 12.3647 14.3661 12.3187 17.1923 12.3241L23.0744 12.3214C23.8304 12.3172 24.5962 12.3338 25.3501 12.3122C25.3633 11.5448 25.3004 10.2698 25.3549 9.58782C25.6257 9.59211 25.9205 9.58062 26.1933 9.57557C26.1974 9.65716 26.2008 9.73878 26.2028 9.82048C26.2244 10.7195 26.2217 11.6802 26.192 12.579C26.17 13.2455 25.627 13.1492 25.1763 13.1532C24.8362 13.1561 24.4711 13.1483 24.1198 13.1453L22.8104 13.1439C22.8107 13.734 22.8668 17.3093 22.7296 17.6C22.4442 17.7307 20.823 17.6828 20.4444 17.6829L16.9022 17.6831L13.3294 17.6821C12.7062 17.6819 12.08 17.6868 11.4568 17.675C11.3619 17.6732 11.3154 17.6681 11.2439 17.6002C11.1645 17.5247 11.1824 17.4703 11.1645 17.3658C11.1426 16.8951 11.151 16.3975 11.1512 15.9262L11.1538 13.1445C10.2958 13.1387 9.43771 13.1437 8.5798 13.1595C7.83163 13.1686 7.76424 12.9091 7.78534 12.1623C7.80918 11.3186 7.79312 10.4669 7.80938 9.62127C8.22551 9.58626 8.8429 9.60709 9.27519 9.60913L11.6482 9.61306L20.1668 9.60157C21.4965 9.602 23.3165 9.67628 24.5989 9.59287Z" fill="#FEFCFC"/>
<path d="M1.97971 9.58251C2.39871 9.57393 2.80608 9.59898 3.22294 9.59727L5.70228 9.57407C5.70557 11.5367 5.70648 13.7717 5.70557 15.7561L5.69972 27.789L4.73591 27.7854L4.73426 11.0745C4.73703 10.7582 4.79535 10.0646 4.54709 9.86491L4.48535 9.87865C4.24666 10.2038 4.33294 11.4802 4.33355 11.9446L4.33541 15.1817L4.33612 23.2367C4.33598 24.7314 4.35864 26.2944 4.32361 27.7823C3.54126 27.7721 2.76043 27.793 1.97802 27.7813C1.93055 27.0836 1.96524 25.9357 1.96473 25.1968L1.96321 20.1978L1.96033 13.5348C1.95959 12.2653 1.93183 10.841 1.97971 9.58251Z" fill="#FEFCFC"/>
<path d="M28.2961 9.57335L32.0175 9.57895C32.076 10.2206 32.0429 11.5032 32.0425 12.1783L32.0412 17.0499L32.0378 24.1056C32.0371 25.2623 32.076 26.6494 32.0266 27.7773C31.4515 27.8204 30.3098 27.78 29.6776 27.7835C29.6272 26.09 29.6671 24.1394 29.6667 22.4285L29.6691 12.3925C29.6651 11.7184 29.7154 10.7511 29.638 10.0648C29.6262 9.96029 29.4984 9.87153 29.3787 9.91957C29.1792 10.189 29.2749 11.423 29.2729 11.8062L29.2522 15.2546L29.2438 23.6423C29.2448 25.0168 29.2752 26.4168 29.2539 27.7857L28.2978 27.7893L28.2941 15.753C28.2937 13.7191 28.263 11.5993 28.2961 9.57335Z" fill="#FEFCFC"/>
</svg>
