<svg width="1084" height="414" viewBox="0 0 1084 414" fill="none" xmlns="http://www.w3.org/2000/svg">
<path d="M637.649 0.421001C657.099 -0.334893 681.699 0.329078 701.467 0.342099L821.901 0.34946L991.28 0.314278C1016.2 0.343806 1042.72 -0.154466 1067.47 0.380659L1067.41 89.638C1012.73 88.7419 955.958 89.4644 901.102 89.4734L837.716 89.5262C818.34 89.5552 782.752 86.321 768.572 101.843C758.288 113.099 758.788 140.666 774.211 148.287C791.894 157.022 814.252 156.34 833.872 157.17L932.721 161.287C987.572 163.618 1052.84 160.508 1073.54 223.974C1080.08 244.04 1081.33 255.912 1082.86 276.649C1083.37 283.269 1083.07 293.917 1083.07 300.664L1083.05 344.63C1083.04 358.167 1083.1 371.704 1083.24 385.24C1083.32 394.267 1083.65 404.439 1083.12 413.338C1058.44 414.131 1035.32 412.438 1011.27 412.557L792.008 412.97C791.298 385.315 790.938 340.83 791.302 313.001C829.502 311.751 869.307 324.854 907.581 323.82C930.773 323.193 958.633 318.544 957.236 289.017C955.493 252.133 912.374 255.618 886.269 254.035L781.866 248.07C742.581 245.751 695.322 246.367 664.737 218.098C632.232 188.058 638.245 144.154 637.865 104.535C637.536 70.1115 638.768 34.8245 637.649 0.421001Z" fill="#FFF9F9"/>
<path d="M226.156 0.505133C241.455 -0.434638 266.145 0.329777 281.976 0.330358L391.176 0.33548C393.825 3.93851 400.301 16.2459 402.724 20.6122L426.122 62.959L452.127 110.198C454.33 114.223 462.84 129.262 463.683 132.664C464.359 135.387 464.118 153.5 464.118 157.305L464.11 214.062L464.105 336.216C464.11 354.736 464.897 378.31 464.119 396.38C459.644 390.124 451.167 373.491 447.109 365.919L417.141 310.109L307.764 106.188C298.328 125.263 287.333 145.082 277.23 163.93L143.148 412.972C133.577 413.168 122.351 412.541 112.504 412.49L40.1756 412.488C27.3774 412.513 12.5384 412.128 0 413.08C5.55837 400.97 16.6895 382.255 23.3643 370.111L67.5907 289.417L185.514 74.6965C199.21 50.0478 212.757 25.3168 226.156 0.505133Z" fill="#FFF9F9"/>
<path d="M608.438 0.139691C610.88 -0.032251 613.68 0.201001 616.144 0.333765C615.213 14.9207 615.656 32.5768 615.65 47.4725L615.673 125.978L615.696 243.417C615.679 266.372 615.36 290.046 615.815 312.902C633.958 312.263 654.646 312.724 672.948 312.754L770.02 312.789C769.776 345.29 770.764 380.764 769.861 412.924C756.902 413.384 741.4 412.966 728.197 412.966L646.684 412.956L486.577 413.001L486.473 0.424014C526.318 -0.623605 568.295 0.66691 608.438 0.139691Z" fill="#BE0119"/>
<path d="M307.761 237.491C309.951 240.005 316.642 252.954 318.612 256.658L336.595 290.24L378.156 367.538C385.528 381.241 395.597 399.052 402.132 412.89C392.366 413.301 379.734 412.954 369.761 412.953L307.915 412.96L213.304 412.942L274.49 299.25C284.523 280.468 297.007 255.38 307.761 237.491Z" fill="#BE0119"/>
</svg>
