<svg width="1920" height="1920" viewBox="0 0 1920 1920" fill="none" xmlns="http://www.w3.org/2000/svg">
<rect width="1920" height="1920" rx="960" fill="#060505"/>
<path d="M1074.89 618.507C1098.28 617.597 1127.87 618.396 1151.64 618.412L1296.48 618.421L1500.19 618.378C1530.16 618.414 1562.06 617.814 1591.82 618.458L1591.76 725.847C1525.99 724.769 1457.71 725.638 1391.74 725.649L1315.5 725.713C1292.2 725.748 1249.4 721.856 1232.35 740.532C1219.98 754.074 1220.58 787.242 1239.13 796.41C1260.39 806.92 1287.28 806.099 1310.88 807.098L1429.76 812.051C1495.73 814.855 1574.23 811.114 1599.12 887.472C1606.99 911.614 1608.5 925.898 1610.33 950.848C1610.95 958.813 1610.59 971.623 1610.59 979.741L1610.56 1032.64C1610.55 1048.92 1610.62 1065.21 1610.78 1081.5C1610.89 1092.36 1611.28 1104.6 1610.64 1115.3C1580.97 1116.26 1553.16 1114.22 1524.24 1114.36L1260.53 1114.86C1259.68 1081.59 1260.06 1027.48 1260.5 994C1306.44 992.495 1353.5 1008.85 1399.53 1007.6C1427.42 1006.85 1460.93 1001.25 1459.25 965.729C1457.15 921.351 1405.29 925.544 1373.9 923.64L1248.33 916.463C1201.09 913.673 1144.25 914.414 1107.46 880.402C1068.37 844.26 1075.6 791.438 1075.15 743.77C1074.75 702.354 1076.23 659.899 1074.89 618.507Z" fill="#FFF9F9"/>
<path d="M579.993 618.609C598.393 617.478 628.087 618.398 647.127 618.399L778.46 618.405C781.646 622.74 789.434 637.547 792.348 642.801L820.488 693.75L851.764 750.584C854.414 755.428 864.648 773.521 865.663 777.614C866.475 780.89 866.186 802.683 866.185 807.261L866.176 875.548L866.17 1022.52C866.176 1044.8 867.122 1073.16 866.187 1094.9C860.805 1087.37 850.61 1067.36 845.729 1058.25L809.687 991.105L678.142 745.761C666.793 768.71 653.57 792.555 641.419 815.231L480.161 1114.86C468.65 1115.1 455.149 1114.35 443.306 1114.28L356.318 1114.28C340.926 1114.31 323.08 1113.85 308 1114.99C314.685 1100.42 328.072 1077.91 336.1 1063.3L389.29 966.21L531.114 707.872C547.585 678.216 563.879 648.461 579.993 618.609Z" fill="#FFF9F9"/>
<path d="M1039.76 618.168C1042.69 617.961 1046.06 618.242 1049.02 618.402C1047.9 635.952 1048.44 657.194 1048.43 675.116L1048.46 769.569L1048.48 910.865C1048.46 938.482 1048.08 966.966 1048.63 994.465C1070.45 993.696 1095.33 994.25 1117.34 994.287L1234.09 994.329C1233.79 1033.43 1234.98 1076.11 1233.9 1114.8C1218.31 1115.36 1199.67 1114.86 1183.79 1114.86L1085.75 1114.84L893.196 1114.9L893.071 618.51C940.992 617.25 991.477 618.802 1039.76 618.168Z" fill="#BE0119"/>
<path d="M678.139 903.735C680.772 906.759 688.819 922.339 691.189 926.796L712.817 967.199L762.802 1060.2C771.667 1076.69 783.778 1098.12 791.637 1114.76C779.891 1115.26 764.7 1114.84 752.705 1114.84L678.323 1114.85L564.537 1114.83L638.124 978.04C650.19 955.442 665.205 925.259 678.139 903.735Z" fill="#BE0119"/>
<path d="M307.79 1303V1226H319.23L344.75 1263.73L370.16 1226H381.6V1303H370.82V1243.38L344.64 1281.99L318.57 1243.49V1303H307.79ZM470.33 1303L439.86 1226H450.86L481.88 1303H470.33ZM408.29 1303L439.31 1226H450.31L419.84 1303H408.29ZM422.92 1282.43V1272.75H467.25V1282.43H422.92ZM437.11 1221.27L449.87 1207.41H462.63L448.44 1221.27H437.11ZM541.887 1304.32C534.407 1304.32 527.771 1302.63 521.977 1299.26C516.184 1295.89 511.637 1291.19 508.337 1285.18C505.111 1279.17 503.497 1272.27 503.497 1264.5C503.497 1258.63 504.414 1253.28 506.247 1248.44C508.154 1243.6 510.794 1239.42 514.167 1235.9C517.541 1232.31 521.537 1229.56 526.157 1227.65C530.851 1225.67 535.984 1224.68 541.557 1224.68C549.037 1224.68 555.637 1226.4 561.357 1229.85C567.151 1233.22 571.661 1237.92 574.887 1243.93C578.114 1249.87 579.727 1256.73 579.727 1264.5C579.727 1272.27 578.114 1279.17 574.887 1285.18C571.661 1291.19 567.187 1295.89 561.467 1299.26C555.821 1302.63 549.294 1304.32 541.887 1304.32ZM572.687 1307.4L544.967 1279.35L552.007 1272.53L579.617 1300.47L572.687 1307.4ZM541.887 1294.42C547.167 1294.42 551.824 1293.14 555.857 1290.57C559.891 1288 563.044 1284.48 565.317 1280.01C567.591 1275.54 568.727 1270.37 568.727 1264.5C568.727 1258.71 567.554 1253.57 565.207 1249.1C562.934 1244.55 559.744 1241 555.637 1238.43C551.604 1235.86 546.947 1234.58 541.667 1234.58C536.387 1234.58 531.694 1235.86 527.587 1238.43C523.481 1241 520.254 1244.55 517.907 1249.1C515.634 1253.57 514.497 1258.71 514.497 1264.5C514.497 1270.37 515.671 1275.54 518.017 1280.01C520.364 1284.48 523.591 1288 527.697 1290.57C531.877 1293.14 536.607 1294.42 541.887 1294.42ZM639.372 1304.65C633.432 1304.65 628.189 1303.44 623.642 1301.02C619.169 1298.53 615.685 1295.08 613.192 1290.68C610.699 1286.21 609.452 1281.07 609.452 1275.28V1226H620.232V1275.28C620.232 1279.09 621.039 1282.47 622.652 1285.4C624.339 1288.33 626.612 1290.61 629.472 1292.22C632.405 1293.83 635.779 1294.64 639.592 1294.64C643.405 1294.64 646.779 1293.83 649.712 1292.22C652.645 1290.61 654.919 1288.33 656.532 1285.4C658.145 1282.47 658.952 1279.09 658.952 1275.28V1226H669.842V1275.28C669.842 1281.07 668.559 1286.21 665.992 1290.68C663.499 1295.08 659.942 1298.53 655.322 1301.02C650.775 1303.44 645.459 1304.65 639.372 1304.65ZM704.168 1303V1226H714.948V1303H704.168ZM750.519 1303V1226H761.629L805.189 1284.96V1226H816.079V1303H805.189L761.299 1243.49V1303H750.519ZM904.894 1303L874.424 1226H885.424L916.444 1303H904.894ZM842.854 1303L873.874 1226H884.874L854.404 1303H842.854ZM857.484 1282.43V1272.75H901.814V1282.43H857.484ZM967.982 1304.32C963.875 1304.32 960.135 1303.84 956.762 1302.89C953.462 1301.94 950.565 1300.65 948.072 1299.04C945.652 1297.35 943.635 1295.48 942.022 1293.43C940.408 1291.38 939.272 1289.21 938.612 1286.94L949.062 1283.53C950.162 1286.54 952.252 1289.14 955.332 1291.34C958.412 1293.54 962.188 1294.68 966.662 1294.75C972.088 1294.75 976.342 1293.69 979.422 1291.56C982.575 1289.36 984.152 1286.46 984.152 1282.87C984.152 1279.57 982.795 1276.89 980.082 1274.84C977.368 1272.71 973.775 1271.1 969.302 1270L960.392 1267.69C956.872 1266.74 953.645 1265.38 950.712 1263.62C947.852 1261.86 945.578 1259.62 943.892 1256.91C942.205 1254.2 941.362 1250.93 941.362 1247.12C941.362 1240.08 943.635 1234.58 948.182 1230.62C952.802 1226.66 959.438 1224.68 968.092 1224.68C973.078 1224.68 977.405 1225.49 981.072 1227.1C984.738 1228.64 987.745 1230.69 990.092 1233.26C992.512 1235.83 994.235 1238.65 995.262 1241.73L984.812 1245.25C983.565 1241.95 981.438 1239.31 978.432 1237.33C975.425 1235.28 971.722 1234.25 967.322 1234.25C962.702 1234.25 959.035 1235.35 956.322 1237.55C953.682 1239.75 952.362 1242.76 952.362 1246.57C952.362 1249.8 953.388 1252.29 955.442 1254.05C957.568 1255.74 960.392 1257.02 963.912 1257.9L972.822 1260.1C980.008 1261.86 985.545 1264.79 989.432 1268.9C993.392 1272.93 995.372 1277.37 995.372 1282.21C995.372 1286.39 994.308 1290.17 992.182 1293.54C990.128 1296.84 987.048 1299.48 982.942 1301.46C978.908 1303.37 973.922 1304.32 967.982 1304.32ZM1069.23 1303V1226H1080.01V1293.1H1115.76V1303H1069.23ZM1149.79 1303V1235.9H1125.7V1226H1184.77V1235.9H1160.68V1303H1149.79ZM1211.78 1303V1226H1235.54C1242.87 1226 1249.36 1227.65 1255.01 1230.95C1260.73 1234.18 1265.2 1238.69 1268.43 1244.48C1271.65 1250.27 1273.27 1256.95 1273.27 1264.5C1273.27 1271.98 1271.65 1278.62 1268.43 1284.41C1265.2 1290.2 1260.73 1294.75 1255.01 1298.05C1249.36 1301.35 1242.87 1303 1235.54 1303H1211.78ZM1222.56 1292.88H1235.54C1239.28 1292.88 1242.76 1292.18 1245.99 1290.79C1249.21 1289.32 1252.04 1287.31 1254.46 1284.74C1256.95 1282.1 1258.86 1279.06 1260.18 1275.61C1261.57 1272.16 1262.27 1268.46 1262.27 1264.5C1262.27 1260.54 1261.57 1256.84 1260.18 1253.39C1258.86 1249.94 1256.95 1246.94 1254.46 1244.37C1252.04 1241.73 1249.21 1239.71 1245.99 1238.32C1242.76 1236.85 1239.28 1236.12 1235.54 1236.12H1222.56V1292.88ZM1357.02 1303L1326.55 1226H1337.55L1368.57 1303H1357.02ZM1294.98 1303L1326 1226H1337L1306.53 1303H1294.98ZM1309.61 1282.43V1272.75H1353.94V1282.43H1309.61ZM1391.73 1274.84V1265.71H1424.73V1274.84H1391.73ZM1456.74 1303V1226H1468.18L1493.7 1263.73L1519.11 1226H1530.55V1303H1519.77V1243.38L1493.59 1281.99L1467.52 1243.49V1303H1456.74ZM1566.04 1303V1226H1612.35V1235.9H1576.82V1258.78H1608.83V1268.46H1576.82V1293.1H1612.57V1303H1566.04Z" fill="#FFF9F9"/>
</svg>
