<svg width="83" height="14" viewBox="0 0 83 14" fill="none" xmlns="http://www.w3.org/2000/svg">
<path d="M7.14445 0.216469C7.17732 0.151476 7.22809 0.0967679 7.29103 0.0585182C7.35397 0.0202685 7.42659 0 7.50067 0C7.57476 0 7.64737 0.0202685 7.71031 0.0585182C7.77326 0.0967679 7.82403 0.151476 7.85689 0.216469L9.58923 3.65113C9.70336 3.87719 9.87182 4.07277 10.0802 4.22109C10.2885 4.3694 10.5305 4.46601 10.7854 4.50263L14.6595 5.05758C14.7329 5.06799 14.8019 5.0983 14.8586 5.14508C14.9154 5.19186 14.9576 5.25324 14.9805 5.32229C15.0035 5.39133 15.0062 5.46528 14.9884 5.53577C14.9707 5.60626 14.9331 5.67048 14.88 5.72117L12.0783 8.39167C11.8935 8.56792 11.7552 8.78548 11.6754 9.02563C11.5956 9.26577 11.5766 9.52131 11.6201 9.77023L12.2815 13.5433C12.2945 13.6151 12.2865 13.689 12.2586 13.7567C12.2307 13.8243 12.1839 13.8829 12.1237 13.9257C12.0634 13.9686 11.992 13.994 11.9177 13.9991C11.8433 14.0041 11.7691 13.9886 11.7033 13.9544L8.24011 12.1721C8.01192 12.0548 7.75803 11.9935 7.5003 11.9935C7.24256 11.9935 6.98868 12.0548 6.76049 12.1721L3.29805 13.9544C3.23231 13.9884 3.15811 14.0038 3.08391 13.9986C3.00971 13.9934 2.93847 13.968 2.87831 13.9252C2.81815 13.8823 2.77147 13.8238 2.74359 13.7563C2.71571 13.6888 2.70775 13.615 2.7206 13.5433L3.38129 9.77097C3.42494 9.52192 3.40603 9.26623 3.3262 9.02593C3.24638 8.78564 3.10803 8.56796 2.92309 8.39167L0.121339 5.7219C0.067789 5.67128 0.029842 5.60695 0.0118205 5.53624C-0.00620092 5.46553 -0.00357221 5.3913 0.0194071 5.32198C0.0423864 5.25267 0.0847924 5.19106 0.141795 5.14419C0.198797 5.09731 0.268103 5.06705 0.341819 5.05685L4.21522 4.50263C4.47039 4.4663 4.71272 4.36981 4.92134 4.22148C5.12997 4.07315 5.29865 3.87741 5.41286 3.65113L7.14445 0.216469Z" fill="#EFEFEF" fill-opacity="0.8"/>
<path d="M24.1445 0.216469C24.1773 0.151476 24.2281 0.0967679 24.291 0.0585182C24.354 0.0202685 24.4266 0 24.5007 0C24.5748 0 24.6474 0.0202685 24.7103 0.0585182C24.7733 0.0967679 24.824 0.151476 24.8569 0.216469L26.5892 3.65113C26.7034 3.87719 26.8718 4.07277 27.0802 4.22109C27.2885 4.3694 27.5305 4.46601 27.7854 4.50263L31.6595 5.05758C31.7329 5.06799 31.8019 5.0983 31.8586 5.14508C31.9154 5.19186 31.9576 5.25324 31.9805 5.32229C32.0035 5.39133 32.0062 5.46528 31.9884 5.53577C31.9707 5.60626 31.9331 5.67048 31.88 5.72117L29.0783 8.39167C28.8935 8.56792 28.7552 8.78548 28.6754 9.02563C28.5956 9.26577 28.5766 9.52131 28.6201 9.77023L29.2815 13.5433C29.2945 13.6151 29.2865 13.689 29.2586 13.7567C29.2307 13.8243 29.1839 13.8829 29.1237 13.9257C29.0634 13.9686 28.992 13.994 28.9177 13.9991C28.8433 14.0041 28.7691 13.9886 28.7033 13.9544L25.2401 12.1721C25.0119 12.0548 24.758 11.9935 24.5003 11.9935C24.2426 11.9935 23.9887 12.0548 23.7605 12.1721L20.2981 13.9544C20.2323 13.9884 20.1581 14.0038 20.0839 13.9986C20.0097 13.9934 19.9385 13.968 19.8783 13.9252C19.8181 13.8823 19.7715 13.8238 19.7436 13.7563C19.7157 13.6888 19.7077 13.615 19.7206 13.5433L20.3813 9.77097C20.4249 9.52192 20.406 9.26623 20.3262 9.02593C20.2464 8.78564 20.108 8.56796 19.9231 8.39167L17.1213 5.7219C17.0678 5.67128 17.0298 5.60695 17.0118 5.53624C16.9938 5.46553 16.9964 5.3913 17.0194 5.32198C17.0424 5.25267 17.0848 5.19106 17.1418 5.14419C17.1988 5.09731 17.2681 5.06705 17.3418 5.05685L21.2152 4.50263C21.4704 4.4663 21.7127 4.36981 21.9213 4.22148C22.13 4.07315 22.2986 3.87741 22.4129 3.65113L24.1445 0.216469Z" fill="#EFEFEF" fill-opacity="0.8"/>
<path d="M41.1445 0.216469C41.1773 0.151476 41.2281 0.0967679 41.291 0.0585182C41.354 0.0202685 41.4266 0 41.5007 0C41.5748 0 41.6474 0.0202685 41.7103 0.0585182C41.7733 0.0967679 41.824 0.151476 41.8569 0.216469L43.5892 3.65113C43.7034 3.87719 43.8718 4.07277 44.0802 4.22109C44.2885 4.3694 44.5305 4.46601 44.7854 4.50263L48.6595 5.05758C48.7329 5.06799 48.8019 5.0983 48.8586 5.14508C48.9154 5.19186 48.9576 5.25324 48.9805 5.32229C49.0035 5.39133 49.0062 5.46528 48.9884 5.53577C48.9707 5.60626 48.9331 5.67048 48.88 5.72117L46.0783 8.39167C45.8935 8.56792 45.7552 8.78548 45.6754 9.02563C45.5956 9.26577 45.5766 9.52131 45.6201 9.77023L46.2815 13.5433C46.2945 13.6151 46.2865 13.689 46.2586 13.7567C46.2307 13.8243 46.1839 13.8829 46.1237 13.9257C46.0634 13.9686 45.992 13.994 45.9177 13.9991C45.8433 14.0041 45.7691 13.9886 45.7033 13.9544L42.2401 12.1721C42.0119 12.0548 41.758 11.9935 41.5003 11.9935C41.2426 11.9935 40.9887 12.0548 40.7605 12.1721L37.2981 13.9544C37.2323 13.9884 37.1581 14.0038 37.0839 13.9986C37.0097 13.9934 36.9385 13.968 36.8783 13.9252C36.8181 13.8823 36.7715 13.8238 36.7436 13.7563C36.7157 13.6888 36.7077 13.615 36.7206 13.5433L37.3813 9.77097C37.4249 9.52192 37.406 9.26623 37.3262 9.02593C37.2464 8.78564 37.108 8.56796 36.9231 8.39167L34.1213 5.7219C34.0678 5.67128 34.0298 5.60695 34.0118 5.53624C33.9938 5.46553 33.9964 5.3913 34.0194 5.32198C34.0424 5.25267 34.0848 5.19106 34.1418 5.14419C34.1988 5.09731 34.2681 5.06705 34.3418 5.05685L38.2152 4.50263C38.4704 4.4663 38.7127 4.36981 38.9213 4.22148C39.13 4.07315 39.2986 3.87741 39.4129 3.65113L41.1445 0.216469Z" fill="#EFEFEF" fill-opacity="0.8"/>
<path d="M58.1445 0.216469C58.1773 0.151476 58.2281 0.0967679 58.291 0.0585182C58.354 0.0202685 58.4266 0 58.5007 0C58.5748 0 58.6474 0.0202685 58.7103 0.0585182C58.7733 0.0967679 58.824 0.151476 58.8569 0.216469L60.5892 3.65113C60.7034 3.87719 60.8718 4.07277 61.0802 4.22109C61.2885 4.3694 61.5305 4.46601 61.7854 4.50263L65.6595 5.05758C65.7329 5.06799 65.8019 5.0983 65.8586 5.14508C65.9154 5.19186 65.9576 5.25324 65.9805 5.32229C66.0035 5.39133 66.0062 5.46528 65.9884 5.53577C65.9707 5.60626 65.9331 5.67048 65.88 5.72117L63.0783 8.39167C62.8935 8.56792 62.7552 8.78548 62.6754 9.02563C62.5956 9.26577 62.5766 9.52131 62.6201 9.77023L63.2815 13.5433C63.2945 13.6151 63.2865 13.689 63.2586 13.7567C63.2307 13.8243 63.1839 13.8829 63.1237 13.9257C63.0634 13.9686 62.992 13.994 62.9177 13.9991C62.8433 14.0041 62.7691 13.9886 62.7033 13.9544L59.2401 12.1721C59.0119 12.0548 58.758 11.9935 58.5003 11.9935C58.2426 11.9935 57.9887 12.0548 57.7605 12.1721L54.2981 13.9544C54.2323 13.9884 54.1581 14.0038 54.0839 13.9986C54.0097 13.9934 53.9385 13.968 53.8783 13.9252C53.8181 13.8823 53.7715 13.8238 53.7436 13.7563C53.7157 13.6888 53.7077 13.615 53.7206 13.5433L54.3813 9.77097C54.4249 9.52192 54.406 9.26623 54.3262 9.02593C54.2464 8.78564 54.108 8.56796 53.9231 8.39167L51.1213 5.7219C51.0678 5.67128 51.0298 5.60695 51.0118 5.53624C50.9938 5.46553 50.9964 5.3913 51.0194 5.32198C51.0424 5.25267 51.0848 5.19106 51.1418 5.14419C51.1988 5.09731 51.2681 5.06705 51.3418 5.05685L55.2152 4.50263C55.4704 4.4663 55.7127 4.36981 55.9213 4.22148C56.13 4.07315 56.2986 3.87741 56.4129 3.65113L58.1445 0.216469Z" fill="#EFEFEF" fill-opacity="0.8"/>
<path d="M75.1445 0.216469C75.1773 0.151476 75.2281 0.0967679 75.291 0.0585182C75.354 0.0202685 75.4266 0 75.5007 0C75.5748 0 75.6474 0.0202685 75.7103 0.0585182C75.7733 0.0967679 75.824 0.151476 75.8569 0.216469L77.5892 3.65113C77.7034 3.87719 77.8718 4.07277 78.0802 4.22109C78.2885 4.3694 78.5305 4.46601 78.7854 4.50263L82.6595 5.05758C82.7329 5.06799 82.8019 5.0983 82.8586 5.14508C82.9154 5.19186 82.9576 5.25324 82.9805 5.32229C83.0035 5.39133 83.0062 5.46528 82.9884 5.53577C82.9707 5.60626 82.9331 5.67048 82.88 5.72117L80.0783 8.39167C79.8935 8.56792 79.7552 8.78548 79.6754 9.02562C79.5956 9.26577 79.5766 9.5213 79.6201 9.77023L80.2815 13.5433C80.2944 13.6151 80.2865 13.689 80.2586 13.7567C80.2307 13.8243 80.1839 13.8829 80.1237 13.9257C80.0634 13.9686 79.992 13.994 79.9177 13.9991C79.8433 14.0041 79.7691 13.9886 79.7033 13.9544L76.2401 12.1721C76.0119 12.0548 75.758 11.9935 75.5003 11.9935C75.2426 11.9935 74.9887 12.0548 74.7605 12.1721L71.2981 13.9544C71.2323 13.9884 71.1581 14.0038 71.0839 13.9986C71.0097 13.9934 70.9385 13.968 70.8783 13.9252C70.8181 13.8823 70.7715 13.8238 70.7436 13.7563C70.7157 13.6888 70.7077 13.615 70.7206 13.5433L71.3813 9.77097C71.4249 9.52192 71.406 9.26623 71.3262 9.02593C71.2464 8.78564 71.108 8.56796 70.9231 8.39167L68.1213 5.7219C68.0678 5.67128 68.0298 5.60695 68.0118 5.53624C67.9938 5.46553 67.9964 5.3913 68.0194 5.32198C68.0424 5.25267 68.0848 5.19106 68.1418 5.14419C68.1988 5.09731 68.2681 5.06705 68.3418 5.05685L72.2152 4.50263C72.4704 4.4663 72.7127 4.36981 72.9213 4.22148C73.13 4.07315 73.2986 3.87741 73.4129 3.65113L75.1445 0.216469Z" fill="#EFEFEF" fill-opacity="0.8"/>
</svg>
