<svg width="31" height="31" viewBox="0 0 31 31" fill="none" xmlns="http://www.w3.org/2000/svg">
<g clip-path="url(#clip0_180_1307)">
<path d="M30.3063 15.5906C30.3063 7.45338 23.5229 0.858398 15.1531 0.858398C6.78339 0.858398 0 7.45338 0 15.5906C0 23.7279 6.78339 30.3229 15.1531 30.3229C15.2419 30.3229 15.3307 30.3229 15.4195 30.3171V18.8536H12.1639V15.1648H15.4195V12.4486C15.4195 9.3007 17.3965 7.58574 20.2851 7.58574C21.6701 7.58574 22.8599 7.68357 23.2032 7.72961V11.0214H21.2143C19.6458 11.0214 19.338 11.7464 19.338 12.8111V15.1591H23.0967L22.6054 18.8479H19.338V29.7531C25.6716 27.9864 30.3063 22.318 30.3063 15.5906Z" fill="url(#paint0_linear_180_1307)"/>
</g>
<defs>
<linearGradient id="paint0_linear_180_1307" x1="0" y1="15.5906" x2="30.3063" y2="15.5906" gradientUnits="userSpaceOnUse">
<stop stop-color="#CF162D"/>
<stop offset="1" stop-color="#BE0119"/>
</linearGradient>
<clipPath id="clip0_180_1307">
<rect width="31" height="31" fill="white"/>
</clipPath>
</defs>
</svg>
