<svg width="500" height="500" viewBox="0 0 500 500" fill="none" xmlns="http://www.w3.org/2000/svg">
<path d="M196.487 49.3007C201.98 48.8541 209.876 49.0927 215.512 49.1095L247.877 49.1797L284.484 49.1306C290.836 49.121 298.797 48.76 305.011 49.2815C314.158 50.0492 325.931 55.5303 334.593 58.7206L374.136 72.9986C382.217 75.896 391.89 79.6224 400.372 81.2343C407.719 82.6293 454.545 79.594 458.3 82.6464C459.966 85.5681 460.304 95.7207 459.457 98.6741C457.79 104.457 447.111 103.093 443.256 108.66C439.414 114.206 439.506 121.931 443.778 127.258C447.52 131.366 452.824 131.421 457.306 134.327C460.998 136.72 460.484 150.983 458.229 153.014C455.518 155.453 441.828 154.468 437.442 154.453L403.033 154.349L303.286 154.316L137.986 154.319C107.865 154.424 77.7393 154.648 47.6212 154.353C44.2955 154.32 40.7647 154.139 40.3517 150.09C40.0008 146.649 40.0268 139.042 40.9506 135.886C42.4942 133.412 48.0313 132.226 50.5748 131.073C59.4155 127.237 62.1557 116.958 56.8913 109.038C51.7885 101.361 39.3222 106.212 40.0288 93.9997C40.2143 90.7923 39.7628 85.5977 41.6426 82.8549C46.2522 79.507 88.8745 82.4221 98.1521 81.4013C104.986 80.6497 111.674 77.9913 118.241 75.7915C134.749 70.2619 150.91 64.0196 167.384 58.398C178.431 54.6286 184.689 50.7324 196.487 49.3007Z" fill="#BE0018"/>
<path d="M52.2426 373.173L52.517 373.151C59.4369 372.659 67.8542 372.83 74.9015 372.797C89.9864 372.681 105.072 372.816 120.153 373.201C135.093 373.517 151.513 373.239 166.696 373.297L383.585 373.302L434.158 373.245C441.141 373.258 448.575 373.202 455.587 373.326C456.731 373.346 457.412 373.717 458.202 374.492C459.442 375.708 459.605 376.646 459.738 378.129C461.451 396.951 452.668 389.713 445.225 398.219C441.496 402.553 439.6 408.169 439.938 413.878C440.381 420.855 444.411 427.659 450.847 430.786C453.198 431.931 456.297 432.591 458.247 434.304C459.229 435.169 459.784 436.439 459.759 437.746C459.701 441.072 460.624 447.001 458.16 449.579C456.147 451.688 450.003 451.124 446.975 451.095C348.369 449.963 248.556 450.686 149.837 450.719L78.2652 450.849C70.0513 450.853 48.7665 451.363 42.1422 449.888C40.7844 448.651 40.3906 446.128 40.2507 444.431C38.938 428.555 47.9729 435.085 55.4659 426.229C58.8497 422.114 60.9487 414.921 60.3628 409.956C58.9912 398.334 50.9415 394.875 41.9116 390.393C39.9132 389.401 39.8013 376.686 41.6168 374.627C44.3298 372.703 48.5702 373.308 52.2426 373.173Z" fill="#BE0018"/>
<path d="M350.813 368.675C338.08 368.948 322.938 368.708 310.121 368.68C290.818 368.739 271.515 368.742 252.212 368.688L169.105 368.663C162.243 368.655 154.878 368.902 148.308 368.843C147.942 365.703 146.577 359.21 155.009 358.869C162.18 358.579 169.974 358.773 177.231 358.815C176.899 353.722 176.899 347.328 176.899 339.34C176.216 333.636 176.899 323.586 176.899 316.041C176.928 302.908 177.662 298.692 176.899 314.044C176.899 298.512 178.152 313.488 176.899 311.825C176.72 311.588 177.231 284.46 176.899 309.122C178.413 309.01 176.221 307.807 177.079 307.346C177.606 303.796 177.969 309.968 177.551 309.122C176.832 305.163 177.079 296.695 176.899 298.692C176.869 293.325 176.899 270.956 176.899 286.932C176.694 285.403 177.175 283.831 176.899 282.31C168.9 282.181 157.243 282.926 150.411 281.097C147.808 280.402 147.924 273.006 148.226 271.534C148.953 268.002 146.108 261.571 151.149 259.069C151.548 258.868 151.959 258.676 152.384 258.495C157.086 257.963 163.709 258.112 168.699 258.11L192.658 258.096C195.168 258.086 200.874 258.257 204.896 258.02C207.353 258.257 205.475 258.054 206.668 258.257C213.351 257.899 224.277 258.374 229.17 258.02C241.278 258.251 254.867 257.84 267.233 258.056C271.598 258.132 290.58 258.288 294.121 258.04C300.206 257.728 309.947 258.082 316.747 258.118C322.683 258.151 344.485 257.796 348.641 259.529C352.806 261.263 350.978 270.087 351.436 273.028C351.852 275.7 351.518 281.731 344.056 282.005C336.667 282.285 328.721 282.098 321.251 282.054C320.64 286.478 320.96 292.326 321.031 296.776L321.075 313.382C321.124 328.092 320.469 344.052 321.284 358.675C328.049 359.063 335.194 358.785 342.025 358.899C352.957 359.083 351.413 364.403 350.813 368.675ZM294.092 281.973C290.802 281.941 283.217 281.717 280.442 282.316C280.015 282.743 280.095 282.751 280.113 283.248C279.59 305.023 280.436 326.858 279.925 348.637C279.884 350.385 279.925 357.119 280.585 358.335C283.545 358.675 291.033 358.39 294.27 358.335C293.971 341.698 294.007 325.528 294.12 308.89C294.118 300.116 293.749 290.68 294.092 281.973Z" fill="#BE0119"/>
<path d="M343.868 159.231C344.532 159.08 344.499 159.165 345.225 159.317C346.37 161.82 345.868 179.516 345.885 183.436C315.293 182.304 283.564 183.087 252.859 183.137C217.549 182.925 182.236 182.976 146.926 183.29L146.851 190.587C181.614 191.082 217.463 190.554 252.374 190.616L325.036 190.585C334.375 190.537 343.835 190.728 353.148 190.48C353.311 181.661 352.534 167.01 353.206 159.173C356.552 159.223 360.194 159.091 363.564 159.033C363.614 159.97 363.656 160.908 363.681 161.847C363.948 172.177 363.915 183.217 363.547 193.546C363.276 201.204 356.569 200.097 351.001 200.143C346.8 200.177 342.289 200.087 337.95 200.052L321.775 200.036C321.779 206.817 322.472 247.901 320.776 251.241C317.251 252.743 297.225 252.193 292.548 252.194L248.791 252.196L204.657 252.185C196.958 252.182 189.224 252.239 181.525 252.103C180.353 252.083 179.778 252.024 178.895 251.243C177.914 250.376 178.135 249.751 177.914 248.55C177.643 243.142 177.747 237.424 177.75 232.008L177.782 200.044C167.183 199.976 156.583 200.034 145.985 200.216C136.743 200.321 135.911 197.339 136.171 188.756C136.466 179.062 136.267 169.275 136.468 159.558C141.609 159.155 149.235 159.395 154.575 159.418L183.889 159.463L289.119 159.331C305.545 159.336 328.027 160.19 343.868 159.231Z" fill="#FEFCFC"/>
<path d="M64.4514 159.112C69.6273 159.014 74.6595 159.302 79.8091 159.282L110.436 159.016C110.477 181.569 110.488 207.25 110.477 230.053L110.405 368.323L98.4987 368.282L98.4782 176.257C98.5125 172.622 99.2329 164.652 96.1661 162.357L95.4035 162.515C92.455 166.252 93.5208 180.918 93.5283 186.256L93.5513 223.453L93.5601 316.013C93.5584 333.188 93.8382 351.149 93.4055 368.247C83.7412 368.129 74.0957 368.37 64.4306 368.234C63.8442 360.217 64.2727 347.027 64.2664 338.536L64.2476 281.093L64.2121 204.528C64.203 189.94 63.86 173.574 64.4514 159.112Z" fill="#FEFCFC"/>
<path d="M389.54 159.007L435.51 159.072C436.233 166.445 435.824 181.183 435.82 188.941L435.803 244.92L435.761 325.998C435.753 339.289 436.233 355.228 435.623 368.189C428.519 368.684 414.415 368.219 406.605 368.26C405.983 348.8 406.476 326.385 406.472 306.726L406.501 191.402C406.451 183.656 407.073 172.541 406.117 164.655C405.97 163.454 404.392 162.434 402.913 162.986C400.449 166.082 401.631 180.262 401.606 184.665L401.351 224.291L401.247 320.673C401.259 336.468 401.635 352.555 401.372 368.285L389.561 368.327L389.515 230.018C389.511 206.646 389.131 182.287 389.54 159.007Z" fill="#FEFCFC"/>
</svg>
