<svg xmlns="http://www.w3.org/2000/svg" viewBox="0 0 24 24" fill="currentColor">
  <path d="M12 2.2c3.2 0 3.6 0 4.9.1 1.2.1 1.9.3 2.3.5.6.2 1 .5 1.4.9.4.4.7.8.9 1.4.2.4.4 1.1.5 2.3.1 1.3.1 1.7.1 4.9s0 3.6-.1 4.9c-.1 1.2-.3 1.9-.5 2.3-.2.6-.5 1-.9 1.4-.4.4-.8.7-1.4.9-.4.2-1.1.4-2.3.5-1.3.1-1.7.1-4.9.1s-3.6 0-4.9-.1c-1.2-.1-1.9-.3-2.3-.5-.6-.2-1-.5-1.4-.9-.4-.4-.7-.8-.9-1.4-.2-.4-.4-1.1-.5-2.3-.1-1.3-.1-1.7-.1-4.9s0-3.6.1-4.9c.1-1.2.3-1.9.5-2.3.2-.6.5-1 .9-1.4.4-.4.8-.7 1.4-.9.4-.2 1.1-.4 2.3-.5 1.3-.1 1.7-.1 4.9-.1zm0 2.2c-3.1 0-3.5 0-4.7.1-1 .1-1.5.2-1.8.4-.4.1-.7.3-1 .6-.3.3-.5.6-.6 1-.2.3-.3.8-.4 1.8-.1 1.2-.1 1.6-.1 4.7s0 3.5.1 4.7c.1 1 .2 1.5.4 1.8.1.4.3.7.6 1 .3.3.6.5 1 .6.3.2.8.3 1.8.4 1.2.1 1.6.1 4.7.1s3.5 0 4.7-.1c1-.1 1.5-.2 1.8-.4.4-.1.7-.3 1-.6.3-.3.5-.6.6-1 .2-.3.3-.8.4-1.8.1-1.2.1-1.6.1-4.7s0-3.5-.1-4.7c-.1-1-.2-1.5-.4-1.8-.1-.4-.3-.7-.6-1-.3-.3-.6-.5-1-.6-.3-.2-.8-.3-1.8-.4-1.2-.1-1.6-.1-4.7-.1z"/>
  <path d="M12 6.2a5.8 5.8 0 1 0 0 11.6 5.8 5.8 0 0 0 0-11.6zm0 9.6a3.8 3.8 0 1 1 0-7.6 3.8 3.8 0 0 1 0 7.6z"/>
  <circle cx="17.8" cy="6.2" r="1.4"/>
</svg>
