<svg xmlns="http://www.w3.org/2000/svg" viewBox="0 0 24 24">
  <path fill="#c4161c" d="M7.75 2h8.5C19.55 2 22 4.45 22 7.75v8.5C22 19.55 19.55 22 16.25 22h-8.5C4.45 22 2 19.55 2 16.25v-8.5C2 4.45 4.45 2 7.75 2zm0 1.5C5.68 3.5 3.5 5.68 3.5 7.75v8.5c0 2.07 2.18 4.25 4.25 4.25h8.5c2.07 0 4.25-2.18 4.25-4.25v-8.5c0-2.07-2.18-4.25-4.25-4.25h-8.5z"/>
  <path fill="#c4161c" d="M12 7a5 5 0 1 0 0 10 5 5 0 0 0 0-10zm0 8.5A3.5 3.5 0 1 1 12 8.5a3.5 3.5 0 0 1 0 7z"/>
  <circle cx="17.5" cy="6.5" r="1.2" fill="#c4161c"/>
</svg>

