<svg width="31" height="12" viewBox="0 0 31 12" fill="none" xmlns="http://www.w3.org/2000/svg">
<path d="M18.2451 0.0121825C18.8016 -0.0097514 19.5055 0.00951516 20.0711 0.00989299L23.5172 0.0101066L28.3637 0.0090857C29.0767 0.00994255 29.8356 -0.0045159 30.5436 0.0110119L30.5421 2.60101C28.9775 2.57501 27.353 2.59597 25.7834 2.59623L23.9697 2.59776C23.4153 2.5986 22.397 2.50476 21.9913 2.95517C21.697 3.28178 21.7113 4.08171 22.1526 4.30283C22.6586 4.55631 23.2983 4.5365 23.8597 4.56061L26.6881 4.68006C28.2576 4.74769 30.125 4.65747 30.7173 6.49906C30.9045 7.08131 30.9404 7.42581 30.9841 8.02755C30.9987 8.21964 30.9901 8.5286 30.9901 8.72438L30.9895 10.0002C30.9891 10.3929 30.9909 10.7858 30.9948 11.1786C30.9972 11.4405 31.0067 11.7356 30.9914 11.9939C30.2854 12.0169 29.6239 11.9678 28.9358 11.9712L22.6618 11.9832C22.6415 11.1807 22.6507 9.8758 22.6611 9.06828C23.7541 9.03199 24.8736 9.42632 25.9688 9.3963C26.6324 9.37812 27.4295 9.24322 27.3896 8.38644C27.3397 7.31615 26.1059 7.41727 25.359 7.37135L22.3716 7.19826C21.2475 7.13096 19.8953 7.14884 19.0202 6.32854C18.0901 5.45687 18.2622 4.18292 18.2513 3.03327C18.2419 2.0344 18.2771 1.01047 18.2451 0.0121825Z" fill="#FFF9F9" fill-opacity="0.9"/>
<path d="M6.47107 0.0146935C6.90882 -0.012576 7.61528 0.00960518 8.06828 0.00962204L11.1929 0.00977068C11.2687 0.114321 11.4539 0.471446 11.5233 0.598144L12.1928 1.82693L12.9369 3.19766C12.9999 3.31448 13.2434 3.75084 13.2675 3.84956C13.2868 3.92857 13.28 4.45417 13.2799 4.56459L13.2797 6.21152L13.2796 9.75607C13.2797 10.2935 13.3022 10.9775 13.28 11.5019C13.1519 11.3203 12.9094 10.8377 12.7933 10.618L11.9358 8.99851L8.80615 3.08132C8.53616 3.63481 8.22155 4.2099 7.93247 4.75681L4.09593 11.9833C3.82208 11.989 3.50085 11.9708 3.2191 11.9693L1.14956 11.9693C0.783359 11.97 0.358765 11.9588 0 11.9865C0.159043 11.635 0.477543 11.092 0.668529 10.7396L1.93399 8.39809L5.30816 2.16752C5.70005 1.45228 6.08769 0.734657 6.47107 0.0146935Z" fill="#FFF9F9" fill-opacity="0.9"/>
<path d="M17.4095 0.00405344C17.4794 -0.000935832 17.5595 0.0058325 17.63 0.00968493C17.6034 0.432958 17.616 0.945286 17.6159 1.37752L17.6165 3.65553L17.6172 7.06328C17.6167 7.72935 17.6076 8.41631 17.6206 9.07953C18.1397 9.06099 18.7317 9.07436 19.2554 9.07525L22.0329 9.07625C22.0259 10.0193 22.0542 11.0487 22.0284 11.9819C21.6576 11.9952 21.214 11.9831 20.8362 11.9831L18.5039 11.9828L13.9227 11.9841L13.9197 0.0123037C15.0598 -0.0180952 16.2609 0.0193519 17.4095 0.00405344Z" fill="#BE0119" fill-opacity="0.9"/>
<path d="M8.80601 6.89136C8.86867 6.96429 9.06011 7.34004 9.11649 7.44754L9.63104 8.42197L10.8202 10.665C11.0312 11.0626 11.3193 11.5794 11.5063 11.9809C11.2268 11.9929 10.8654 11.9828 10.58 11.9828L8.8104 11.983L6.10327 11.9824L7.85402 8.68342C8.14108 8.13842 8.4983 7.41046 8.80601 6.89136Z" fill="#BE0119" fill-opacity="0.9"/>
</svg>
